<?xml version="1.0" encoding="UTF-8" standalone="no"?>
<!-- Created with Inkscape (http://www.inkscape.org/) -->

<svg
   xmlns:dc="http://purl.org/dc/elements/1.1/"
   xmlns:cc="http://creativecommons.org/ns#"
   xmlns:rdf="http://www.w3.org/1999/02/22-rdf-syntax-ns#"
   xmlns:svg="http://www.w3.org/2000/svg"
   xmlns="http://www.w3.org/2000/svg"
   xmlns:sodipodi="http://sodipodi.sourceforge.net/DTD/sodipodi-0.dtd"
   xmlns:inkscape="http://www.inkscape.org/namespaces/inkscape"
   width="128"
   height="128"
   id="svg12257"
   sodipodi:version="0.32"
   inkscape:version="0.48.4 r9939"
   version="1.0"
   sodipodi:docname="time.svg">
  <title
     id="title4985">time</title>
  <defs
     id="defs12259" />
  <sodipodi:namedview
     id="base"
     pagecolor="#ffffff"
     bordercolor="#666666"
     borderopacity="1.0"
     gridtolerance="10000"
     guidetolerance="10"
     objecttolerance="10"
     inkscape:pageopacity="0.0"
     inkscape:pageshadow="2"
     inkscape:zoom="2.9189643"
     inkscape:cx="-14.220496"
     inkscape:cy="60.535992"
     inkscape:document-units="px"
     inkscape:current-layer="layer1"
     inkscape:window-width="1028"
     inkscape:window-height="683"
     inkscape:window-x="594"
     inkscape:window-y="81"
     showgrid="false"
     inkscape:window-maximized="0" />
  <metadata
     id="metadata12262">
    <rdf:RDF>
      <cc:Work
         rdf:about="">
        <dc:format>image/svg+xml</dc:format>
        <dc:type
           rdf:resource="http://purl.org/dc/dcmitype/StillImage" />
        <dc:title>time</dc:title>
        <cc:license
           rdf:resource="http://creativecommons.org/licenses/by-sa/3.0/" />
        <dc:description>attribution: https://commons.wikimedia.org/wiki/File:Simple_icon_time.svg</dc:description>
      </cc:Work>
      <cc:License
         rdf:about="http://creativecommons.org/licenses/by-sa/3.0/">
        <cc:permits
           rdf:resource="http://creativecommons.org/ns#Reproduction" />
        <cc:permits
           rdf:resource="http://creativecommons.org/ns#Distribution" />
        <cc:requires
           rdf:resource="http://creativecommons.org/ns#Notice" />
        <cc:requires
           rdf:resource="http://creativecommons.org/ns#Attribution" />
        <cc:permits
           rdf:resource="http://creativecommons.org/ns#DerivativeWorks" />
        <cc:requires
           rdf:resource="http://creativecommons.org/ns#ShareAlike" />
      </cc:License>
    </rdf:RDF>
  </metadata>
  <g
     inkscape:label="Layer 1"
     inkscape:groupmode="layer"
     id="layer1"
     transform="translate(-306.4286,-247.2193)">
    <g
       id="g5006"
       transform="matrix(3.1869392,0,0,3.1869392,-685.44927,-820.20794)"
       style="fill:#5cd685;fill-opacity:1">
      <path
         id="path1948"
         d="m 331.4286,337.21928 c -9.91413,0 -18.00001,8.08588 -18.00001,18.00002 0,9.91413 8.08588,18.00001 18.00001,18.00001 9.91414,0 18.00002,-8.08588 18.00002,-18.00001 0,-9.91414 -8.08588,-18.00002 -18.00002,-18.00002 z m 0,4.00001 c 7.74989,0 14.00002,6.25013 14.00002,14.00001 0,7.74988 -6.25013,14.00001 -14.00002,14.00001 -7.74988,0 -14.00001,-6.25013 -14.00001,-14.00001 0,-7.74988 6.25013,-14.00001 14.00001,-14.00001 z"
         style="color:#000000;fill:#5cd685;fill-opacity:1;fill-rule:nonzero;stroke:none;stroke-width:7.00000047999999975;marker:none;visibility:visible;display:inline;overflow:visible"
         inkscape:connector-curvature="0" />
      <path
         id="path1950"
         d="m 331.6786,341.97479 c -1.10458,0.0172 -1.98603,0.92667 -1.96875,2.03125 l 0,13.71875 c -0.009,0.73187 0.38285,1.41011 1.02113,1.76832 0.63827,0.35822 1.42123,0.33921 2.04137,-0.0496 l 7.28125,-4.46872 c 0.63407,-0.36193 1.02057,-1.04058 1.00836,-1.77057 -0.0122,-0.72999 -0.42119,-1.39534 -1.067,-1.73586 -0.64582,-0.34053 -1.42586,-0.30213 -2.03511,0.10018 l -4.25,2.59375 0,-10.15625 c 0.008,-0.54127 -0.20282,-1.06287 -0.5856,-1.44565 -0.38278,-0.38278 -0.90438,-0.59407 -1.44565,-0.5856 z"
         style="fill:#5cd685;fill-opacity:1;fill-rule:evenodd;stroke:none"
         inkscape:connector-curvature="0" />
    </g>
  </g>
</svg>
