<?xml version="1.0" encoding="iso-8859-1"?>
<!-- Generator: Adobe Illustrator 19.0.0, SVG Export Plug-In . SVG Version: 6.00 Build 0)  -->
<svg version="1.1" id="Capa_1" xmlns="http://www.w3.org/2000/svg" xmlns:xlink="http://www.w3.org/1999/xlink" x="0px" y="0px"
	 viewBox="0 0 512 512" style="enable-background:new 0 0 512 512;" xml:space="preserve" width="22px" height="27px">
<path style="fill:#303C42;" d="M394.667,149.333H416c17.646,0,32-14.354,32-32V32c0-17.646-14.354-32-32-32h-21.333
	c-17.646,0-32,14.354-32,32v22.257l-77.677,7.06c-5.078-10.975-16.122-18.65-28.99-18.65s-23.911,7.674-28.99,18.65l-77.677-7.06V32
	c0-17.646-14.354-32-32-32H96C78.354,0,64,14.354,64,32v85.333c0,17.646,14.354,32,32,32h21.333c17.646,0,32-14.354,32-32V95.077
	l77.677-7.06c1.858,4.016,4.534,7.534,7.799,10.444l7.773,115.427c-4.526,1.234-7.917,5.191-7.917,10.112v64
	c0,4.738,3.134,8.616,7.404,10.009l-7.245,94.184C228.238,398.059,224,406.505,224,416v7.712l-74.667-6.789v-22.257
	c0-17.646-14.354-32-32-32H96c-17.646,0-32,14.354-32,32V480c0,17.646,14.354,32,32,32h21.333c17.646,0,32-14.354,32-32v-22.257
	L224,450.954v7.712c0,17.646,14.354,32,32,32s32-14.354,32-32v-7.712l74.667,6.789V480c0,17.646,14.354,32,32,32H416
	c17.646,0,32-14.354,32-32v-85.333c0-17.646-14.354-32-32-32h-21.333c-17.646,0-32,14.354-32,32v22.257L288,423.712V416
	c0-9.497-4.24-17.945-10.831-23.811l-7.314-94.165c4.307-1.371,7.478-5.259,7.478-10.023v-64c0-4.891-3.35-8.835-7.835-10.096
	l7.695-115.445c3.263-2.91,5.938-6.427,7.796-10.441l77.677,7.06v22.257C362.667,134.979,377.021,149.333,394.667,149.333z"/>
<path style="fill:#495966;" d="M384,32c0-5.885,4.781-10.667,10.667-10.667H416c5.885,0,10.667,4.781,10.667,10.667v85.333
	c0,5.885-4.781,10.667-10.667,10.667h-21.333c-5.885,0-10.667-4.781-10.667-10.667V32z"/>
<circle style="fill:#818181;" cx="256" cy="74.667" r="10.667"/>
<path style="fill:#495966;" d="M128,117.333c0,5.885-4.781,10.667-10.667,10.667H96c-5.885,0-10.667-4.781-10.667-10.667V32
	c0-5.885,4.781-10.667,10.667-10.667h21.333C123.219,21.333,128,26.115,128,32V117.333z"/>
<path style="opacity:0.2;fill:#FFFFFF;enable-background:new    ;" d="M96,117.333V32c0-5.885,2.391-10.667,5.333-10.667H96
	c-5.885,0-10.667,4.781-10.667,10.667v85.333C85.333,123.219,90.115,128,96,128h5.333C98.391,128,96,123.219,96,117.333z"/>
<path style="opacity:0.1;fill:#010101;enable-background:new    ;" d="M117.333,21.333H112c2.943,0,5.333,4.781,5.333,10.667v85.333
	c0,5.885-2.391,10.667-5.333,10.667h5.333c5.885,0,10.667-4.781,10.667-10.667V32C128,26.115,123.219,21.333,117.333,21.333z"/>
<path style="opacity:0.2;fill:#FFFFFF;enable-background:new    ;" d="M394.667,117.333V32c0-5.885,2.391-10.667,5.333-10.667
	h-5.333C388.781,21.333,384,26.115,384,32v85.333c0,5.885,4.781,10.667,10.667,10.667H400
	C397.057,128,394.667,123.219,394.667,117.333z"/>
<path style="opacity:0.1;fill:#010101;enable-background:new    ;" d="M416,21.333h-5.333c2.943,0,5.333,4.781,5.333,10.667v85.333
	c0,5.885-2.391,10.667-5.333,10.667H416c5.885,0,10.667-4.781,10.667-10.667V32C426.667,26.115,421.885,21.333,416,21.333z"/>
<path style="fill:#495966;" d="M128,480c0,5.885-4.781,10.667-10.667,10.667H96c-5.885,0-10.667-4.781-10.667-10.667v-85.333
	C85.333,388.781,90.115,384,96,384h21.333c5.885,0,10.667,4.781,10.667,10.667V480z"/>
<path style="fill:#818181;" d="M266.667,458.667c0,5.885-4.781,10.667-10.667,10.667c-5.885,0-10.667-4.781-10.667-10.667V416
	c0-5.885,4.781-10.667,10.667-10.667c5.885,0,10.667,4.781,10.667,10.667V458.667z"/>
<path style="fill:#495966;" d="M384,394.667c0-5.885,4.781-10.667,10.667-10.667H416c5.885,0,10.667,4.781,10.667,10.667V480
	c0,5.885-4.781,10.667-10.667,10.667h-21.333c-5.885,0-10.667-4.781-10.667-10.667V394.667z"/>
<path style="opacity:0.2;fill:#FFFFFF;enable-background:new    ;" d="M96,480v-85.333c0-5.885,2.391-10.667,5.333-10.667H96
	c-5.885,0-10.667,4.781-10.667,10.667V480c0,5.885,4.781,10.667,10.667,10.667h5.333C98.391,490.667,96,485.885,96,480z"/>
<path style="opacity:0.1;fill:#010101;enable-background:new    ;" d="M117.333,384H112c2.943,0,5.333,4.781,5.333,10.667V480
	c0,5.885-2.391,10.667-5.333,10.667h5.333c5.885,0,10.667-4.781,10.667-10.667v-85.333C128,388.781,123.219,384,117.333,384z"/>
<path style="opacity:0.2;fill:#FFFFFF;enable-background:new    ;" d="M394.667,480v-85.333c0-5.885,2.391-10.667,5.333-10.667
	h-5.333c-5.885,0-10.667,4.781-10.667,10.667V480c0,5.885,4.781,10.667,10.667,10.667H400
	C397.057,490.667,394.667,485.885,394.667,480z"/>
<path style="opacity:0.1;fill:#010101;enable-background:new    ;" d="M416,384h-5.333c2.943,0,5.333,4.781,5.333,10.667V480
	c0,5.885-2.391,10.667-5.333,10.667H416c5.885,0,10.667-4.781,10.667-10.667v-85.333C426.667,388.781,421.885,384,416,384z"/>
<linearGradient id="SVGID_1_" gradientUnits="userSpaceOnUse" x1="-46.2447" y1="639.8662" x2="-23.1615" y2="629.1025" gradientTransform="matrix(21.3333 0 0 -21.3333 996.3334 13791.667)">
	<stop  offset="0" style="stop-color:#FFFFFF;stop-opacity:0.2"/>
	<stop  offset="1" style="stop-color:#FFFFFF;stop-opacity:0"/>
</linearGradient>
<path style="fill:url(#SVGID_1_);" d="M394.667,149.333H416c17.646,0,32-14.354,32-32V32c0-17.646-14.354-32-32-32h-21.333
	c-17.646,0-32,14.354-32,32v22.257l-77.677,7.06c-5.078-10.975-16.122-18.65-28.99-18.65s-23.911,7.674-28.99,18.65l-77.677-7.06V32
	c0-17.646-14.354-32-32-32H96C78.354,0,64,14.354,64,32v85.333c0,17.646,14.354,32,32,32h21.333c17.646,0,32-14.354,32-32V95.077
	l77.677-7.06c1.858,4.016,4.534,7.534,7.799,10.444l7.773,115.427c-4.526,1.234-7.917,5.191-7.917,10.112v64
	c0,4.738,3.134,8.616,7.404,10.009l-7.245,94.184C228.238,398.059,224,406.505,224,416v7.712l-74.667-6.789v-22.257
	c0-17.646-14.354-32-32-32H96c-17.646,0-32,14.354-32,32V480c0,17.646,14.354,32,32,32h21.333c17.646,0,32-14.354,32-32v-22.257
	L224,450.954v7.712c0,17.646,14.354,32,32,32s32-14.354,32-32v-7.712l74.667,6.789V480c0,17.646,14.354,32,32,32H416
	c17.646,0,32-14.354,32-32v-85.333c0-17.646-14.354-32-32-32h-21.333c-17.646,0-32,14.354-32,32v22.257L288,423.712V416
	c0-9.497-4.24-17.945-10.831-23.811l-7.314-94.165c4.307-1.371,7.478-5.259,7.478-10.023v-64c0-4.891-3.35-8.835-7.835-10.096
	l7.695-115.445c3.263-2.91,5.938-6.427,7.796-10.441l77.677,7.06v22.257C362.667,134.979,377.021,149.333,394.667,149.333z"/>
<g>
</g>
<g>
</g>
<g>
</g>
<g>
</g>
<g>
</g>
<g>
</g>
<g>
</g>
<g>
</g>
<g>
</g>
<g>
</g>
<g>
</g>
<g>
</g>
<g>
</g>
<g>
</g>
<g>
</g>
</svg>
